<?xml version="1.0" encoding="utf-8" ?>
<!DOCTYPE svg PUBLIC "-//W3C//DTD SVG 1.1//EN" "http://www.w3.org/Graphics/SVG/1.1/DTD/svg11.dtd">
<svg xmlns="http://www.w3.org/2000/svg" xmlns:xlink="http://www.w3.org/1999/xlink" version="1.1" id="Layer_1" x="0px" y="0px" viewBox="0 0 836 270" style="enable-background:new 0 0 836 270;" xml:space="preserve"><style type="text/css">.st0{fill:#006891;} .st1{fill-rule:evenodd;clip-rule:evenodd;fill:#006891;}</style><g><polyline class="st0" points="37.5,194.1 37.5,76.4 73.4,76.4 73.4,119.8 155.1,119.8 155.1,76.4 191.1,76.4 191.1,194.1 155.1,194.1 155.1,149.2 73.4,149.2 73.4,194.1 37.5,194.1"/><path class="st1" d="M275.6,148.8h50.9l-25.7-47.2L275.6,148.8 M210.7,194.1L277,75.9h48.1l64.4,118.1h-39.2l-11.7-21h-76.1 l-11.2,21H210.7z"/><polyline class="st0" points="405.9,194.1 405.9,76.4 462.8,76.4 505.8,154.4 548.7,76.4 605.2,76.4 605.2,194.1 570.2,194.1 572.1,103 519.8,194.1 491.3,194.1 439.5,103 440.4,194.1 405.9,194.1"/><polyline class="st0" points="638.8,194.1 638.8,76.4 674.8,76.4 674.8,120.3 693.9,120.3 742.5,76.4 792,76.4 724.3,134.3 798.5,194.1 746.2,194.1 693,148.8 674.8,148.8 674.8,194.1 638.8,194.1"/></g></svg>